<svg width="207" height="211" viewBox="0 0 207 211" fill="none" xmlns="http://www.w3.org/2000/svg">
<ellipse cx="103.5" cy="105.5" rx="103.5" ry="105.5" fill="#F37217"/>
<path d="M42.5556 64.6667H48.1111V70.2222H42.5556V64.6667ZM48.1111 64.6667H53.6667V70.2222H48.1111V64.6667ZM53.6667 64.6667H59.2222V70.2222H53.6667V64.6667ZM59.2222 64.6667H64.7778V70.2222H59.2222V64.6667ZM64.7778 64.6667H70.3333V70.2222H64.7778V64.6667ZM70.3333 64.6667H75.8889V70.2222H70.3333V64.6667ZM75.8889 64.6667H81.4444V70.2222H75.8889V64.6667ZM81.4444 64.6667H87V70.2222H81.4444V64.6667ZM81.4444 70.2222H87V75.7778H81.4444V70.2222ZM87 70.2222H92.5556V75.7778H87V70.2222ZM75.8889 70.2222H81.4444V75.7778H75.8889V70.2222ZM70.3333 70.2222H75.8889V75.7778H70.3333V70.2222ZM64.7778 70.2222H70.3333V75.7778H64.7778V70.2222ZM59.2222 70.2222H64.7778V75.7778H59.2222V70.2222ZM53.6667 70.2222H59.2222V75.7778H53.6667V70.2222ZM48.1111 70.2222H53.6667V75.7778H48.1111V70.2222ZM42.5556 70.2222H48.1111V75.7778H42.5556V70.2222ZM42.5556 75.7778H48.1111V81.3333H42.5556V75.7778ZM48.1111 75.7778H53.6667V81.3333H48.1111V75.7778ZM53.6667 75.7778H59.2222V81.3333H53.6667V75.7778ZM59.2222 75.7778H64.7778V81.3333H59.2222V75.7778ZM70.3333 75.7778H75.8889V81.3333H70.3333V75.7778ZM75.8889 75.7778H81.4444V81.3333H75.8889V75.7778ZM81.4444 75.7778H87V81.3333H81.4444V75.7778ZM87 75.7778H92.5556V81.3333H87V75.7778ZM92.5556 75.7778H98.1111V81.3333H92.5556V75.7778ZM64.7778 75.7778H70.3333V81.3333H64.7778V75.7778ZM75.8889 81.3333H81.4444V86.8889H75.8889V81.3333ZM81.4444 81.3333H87V86.8889H81.4444V81.3333ZM92.5556 81.3333H98.1111V86.8889H92.5556V81.3333ZM87 81.3333H92.5556V86.8889H87V81.3333ZM87 86.8889H92.5556V92.4444H87V86.8889ZM87 98H92.5556V103.556H87V98ZM92.5556 98H98.1111V103.556H92.5556V98ZM92.5556 103.556H98.1111V109.111H92.5556V103.556ZM92.5556 86.8889H98.1111V92.4444H92.5556V86.8889ZM81.4444 98H87V103.556H81.4444V98ZM81.4444 86.8889H87V92.4444H81.4444V86.8889ZM75.8889 98H81.4444V103.556H75.8889V98ZM81.4444 103.556H87V109.111H81.4444V103.556ZM87 103.556H92.5556V109.111H87V103.556ZM87 109.111H92.5556V114.667H87V109.111ZM75.8889 114.667H81.4444V120.222H75.8889V114.667ZM81.4444 114.667H87V120.222H81.4444V114.667ZM81.4444 109.111H87V114.667H81.4444V109.111ZM75.8889 109.111H81.4444V114.667H75.8889V109.111ZM75.8889 103.556H81.4444V109.111H75.8889V103.556ZM70.3333 114.667H75.8889V120.222H70.3333V114.667ZM64.7778 114.667H70.3333V120.222H64.7778V114.667ZM59.2222 114.667H64.7778V120.222H59.2222V114.667ZM59.2222 109.111H64.7778V114.667H59.2222V109.111ZM64.7778 109.111H70.3333V114.667H64.7778V109.111ZM64.7778 103.556H70.3333V109.111H64.7778V103.556ZM70.3333 103.556H75.8889V109.111H70.3333V103.556ZM59.2222 103.556H64.7778V109.111H59.2222V103.556ZM70.3333 109.111H75.8889V114.667H70.3333V109.111ZM48.1111 81.3333H53.6667V86.8889H48.1111V81.3333ZM53.6667 81.3333H59.2222V86.8889H53.6667V81.3333ZM53.6667 86.8889H59.2222V92.4444H53.6667V86.8889ZM53.6667 92.4444H59.2222V98H53.6667V92.4444ZM53.6667 98H59.2222V103.556H53.6667V98ZM48.1111 98H53.6667V103.556H48.1111V98ZM42.5556 98H48.1111V103.556H42.5556V98ZM42.5556 92.4444H48.1111V98H42.5556V92.4444ZM42.5556 86.8889H48.1111V92.4444H42.5556V86.8889ZM42.5556 81.3333H48.1111V86.8889H42.5556V81.3333ZM48.1111 92.4444H53.6667V98H48.1111V92.4444ZM48.1111 103.556H53.6667V109.111H48.1111V103.556ZM48.1111 86.8889H53.6667V92.4444H48.1111V86.8889ZM42.5556 103.556H48.1111V109.111H42.5556V103.556ZM42.5556 109.111H48.1111V114.667H42.5556V109.111ZM48.1111 109.111H53.6667V114.667H48.1111V109.111ZM53.6667 103.556H59.2222V109.111H53.6667V103.556ZM53.6667 109.111H59.2222V114.667H53.6667V109.111ZM53.6667 114.667H59.2222V120.222H53.6667V114.667ZM53.6667 120.222H59.2222V125.778H53.6667V120.222ZM53.6667 125.778H59.2222V131.333H53.6667V125.778ZM53.6667 131.333H59.2222V136.889H53.6667V131.333ZM53.6667 142.444H59.2222V148H53.6667V142.444ZM48.1111 142.444H53.6667V148H48.1111V142.444ZM42.5556 142.444H48.1111V148H42.5556V142.444ZM42.5556 136.889H48.1111V142.444H42.5556V136.889ZM42.5556 131.333H48.1111V136.889H42.5556V131.333ZM42.5556 125.778H48.1111V131.333H42.5556V125.778ZM42.5556 120.222H48.1111V125.778H42.5556V120.222ZM42.5556 114.667H48.1111V120.222H42.5556V114.667ZM48.1111 114.667H53.6667V120.222H48.1111V114.667ZM48.1111 120.222H53.6667V125.778H48.1111V120.222ZM48.1111 125.778H53.6667V131.333H48.1111V125.778ZM48.1111 131.333H53.6667V136.889H48.1111V131.333ZM48.1111 136.889H53.6667V142.444H48.1111V136.889ZM53.6667 136.889H59.2222V142.444H53.6667V136.889ZM92.5556 92.4444H98.1111V98H92.5556V92.4444ZM87 92.4444H92.5556V98H87V92.4444ZM81.4444 92.4444H87V98H81.4444V92.4444ZM120.317 64.6667H125.873V70.2222H120.317V64.6667ZM125.873 64.6667H131.428V70.2222H125.873V64.6667ZM131.428 64.6667H136.984V70.2222H131.428V64.6667ZM136.984 64.6667H142.539V70.2222H136.984V64.6667ZM142.539 64.6667H148.095V70.2222H142.539V64.6667ZM148.095 64.6667H153.65V70.2222H148.095V64.6667ZM148.095 70.2222H153.65V75.7778H148.095V70.2222ZM153.65 70.2222H159.206V75.7778H153.65V70.2222ZM142.539 70.2222H148.095V75.7778H142.539V70.2222ZM136.984 70.2222H142.539V75.7778H136.984V70.2222ZM131.428 70.2222H136.984V75.7778H131.428V70.2222ZM125.873 70.2222H131.428V75.7778H125.873V70.2222ZM120.317 70.2222H125.873V75.7778H120.317V70.2222ZM114.762 75.7778H120.317V81.3333H114.762V75.7778ZM114.762 70.2222H120.317V75.7778H114.762V70.2222ZM109.206 75.7778H114.762V81.3333H109.206V75.7778ZM120.317 75.7778H125.873V81.3333H120.317V75.7778ZM125.873 75.7778H131.428V81.3333H125.873V75.7778ZM131.428 75.7778H136.984V81.3333H131.428V75.7778ZM136.984 75.7778H142.539V81.3333H136.984V75.7778ZM142.539 75.7778H148.095V81.3333H142.539V75.7778ZM148.095 75.7778H153.65V81.3333H148.095V75.7778ZM153.65 75.7778H159.206V81.3333H153.65V75.7778ZM159.206 75.7778H164.762V81.3333H159.206V75.7778ZM159.206 81.3333H164.762V86.8889H159.206V81.3333ZM153.65 81.3333H159.206V86.8889H153.65V81.3333ZM148.095 81.3333H153.65V86.8889H148.095V81.3333ZM142.539 81.3333H148.095V86.8889H142.539V81.3333ZM148.095 86.8889H153.65V92.4444H148.095V86.8889ZM148.095 92.4444H153.65V98H148.095V92.4444ZM148.095 98H153.65V103.556H148.095V98ZM148.095 103.556H153.65V109.111H148.095V103.556ZM148.095 109.111H153.65V114.667H148.095V109.111ZM153.65 103.556H159.206V109.111H153.65V103.556ZM159.206 103.556H164.762V109.111H159.206V103.556ZM159.206 98H164.762V103.556H159.206V98ZM159.206 92.4444H164.762V98H159.206V92.4444ZM159.206 86.8889H164.762V92.4444H159.206V86.8889ZM153.65 86.8889H159.206V92.4444H153.65V86.8889ZM153.65 92.4444H159.206V98H153.65V92.4444ZM153.65 98H159.206V103.556H153.65V98ZM153.65 109.111H159.206V114.667H153.65V109.111ZM153.65 114.667H159.206V120.222H153.65V114.667ZM159.206 114.667H164.762V120.222H159.206V114.667ZM159.206 109.111H164.762V114.667H159.206V109.111ZM159.206 120.222H164.762V125.778H159.206V120.222ZM159.206 125.778H164.762V131.333H159.206V125.778ZM159.206 131.333H164.762V136.889H159.206V131.333ZM153.65 131.333H159.206V136.889H153.65V131.333ZM153.65 125.778H159.206V131.333H153.65V125.778ZM153.65 120.222H159.206V125.778H153.65V120.222ZM148.095 114.667H153.65V120.222H148.095V114.667ZM148.095 120.222H153.65V125.778H148.095V120.222ZM148.095 125.778H153.65V131.333H148.095V125.778ZM142.539 125.778H148.095V131.333H142.539V125.778ZM148.095 131.333H153.65V136.889H148.095V131.333ZM153.65 136.889H159.206V142.444H153.65V136.889ZM148.095 136.889H153.65V142.444H148.095V136.889ZM142.539 131.333H148.095V136.889H142.539V131.333ZM142.539 136.889H148.095V142.444H142.539V136.889ZM148.095 142.444H153.65V148H148.095V142.444ZM142.539 142.444H148.095V148H142.539V142.444ZM136.984 142.444H142.539V148H136.984V142.444ZM131.428 142.444H136.984V148H131.428V142.444ZM125.873 142.444H131.428V148H125.873V142.444ZM120.317 142.444H125.873V148H120.317V142.444ZM120.317 136.889H125.873V142.444H120.317V136.889ZM125.873 136.889H131.428V142.444H125.873V136.889ZM125.873 131.333H131.428V136.889H125.873V131.333ZM131.428 131.333H136.984V136.889H131.428V131.333ZM136.984 131.333H142.539V136.889H136.984V131.333ZM136.984 136.889H142.539V142.444H136.984V136.889ZM131.428 136.889H136.984V142.444H131.428V136.889ZM114.762 136.889H120.317V142.444H114.762V136.889ZM120.317 131.333H125.873V136.889H120.317V131.333ZM120.317 125.778H125.873V131.333H120.317V125.778ZM114.762 125.778H120.317V131.333H114.762V125.778ZM114.762 131.333H120.317V136.889H114.762V131.333ZM109.206 131.333H114.762V136.889H109.206V131.333ZM109.206 125.778H114.762V131.333H109.206V125.778ZM109.206 120.222H114.762V125.778H109.206V120.222ZM109.206 114.667H114.762V120.222H109.206V114.667ZM109.206 109.111H114.762V114.667H109.206V109.111ZM109.206 103.556H114.762V109.111H109.206V103.556ZM109.206 98H114.762V103.556H109.206V98ZM109.206 92.4444H114.762V98H109.206V92.4444ZM109.206 86.8889H114.762V92.4444H109.206V86.8889ZM109.206 81.3333H114.762V86.8889H109.206V81.3333ZM114.762 81.3333H120.317V86.8889H114.762V81.3333ZM120.317 81.3333H125.873V86.8889H120.317V81.3333ZM120.317 86.8889H125.873V92.4444H120.317V86.8889ZM120.317 92.4444H125.873V98H120.317V92.4444ZM120.317 98H125.873V103.556H120.317V98ZM120.317 103.556H125.873V109.111H120.317V103.556ZM120.317 109.111H125.873V114.667H120.317V109.111ZM120.317 114.667H125.873V120.222H120.317V114.667ZM120.317 120.222H125.873V125.778H120.317V120.222ZM114.762 120.222H120.317V125.778H114.762V120.222ZM114.762 114.667H120.317V120.222H114.762V114.667ZM114.762 109.111H120.317V114.667H114.762V109.111ZM114.762 103.556H120.317V109.111H114.762V103.556ZM114.762 98H120.317V103.556H114.762V98ZM114.762 92.4444H120.317V98H114.762V92.4444ZM114.762 86.8889H120.317V92.4444H114.762V86.8889ZM109.206 136.889H114.762V142.444H109.206V136.889ZM109.206 142.444H114.762V148H109.206V142.444ZM114.762 142.444H120.317V148H114.762V142.444ZM114.762 64.6667H120.317V70.2222H114.762V64.6667ZM109.206 64.6667H114.762V70.2222H109.206V64.6667ZM109.206 70.2222H114.762V75.7778H109.206V70.2222Z" fill="white"/>
</svg>
